<?xml version="1.0" encoding="UTF-8" standalone="no"?>
<!-- Created with Inkscape (http://www.inkscape.org/) -->
<svg xmlns:dc="http://purl.org/dc/elements/1.1/" xmlns:cc="http://creativecommons.org/ns#" xmlns:rdf="http://www.w3.org/1999/02/22-rdf-syntax-ns#" xmlns:svg="http://www.w3.org/2000/svg" xmlns="http://www.w3.org/2000/svg" xmlns:xlink="http://www.w3.org/1999/xlink" xmlns:sodipodi="http://sodipodi.sourceforge.net/DTD/sodipodi-0.dtd" xmlns:inkscape="http://www.inkscape.org/namespaces/inkscape" width="520.89697" height="148" viewBox="0 0 137.82065 39.158333" version="1.1" id="svg80" sodipodi:docname="no-facebook.svg" inkscape:version="0.92.4 (5da689c313, 2019-01-14)">
  <defs id="defs74">
    <clipPath id="SVGID_2_">
      <use xlink:href="#SVGID_1_" style="overflow:visible" id="use1007" x="0" y="0" width="100%" height="100%"/>
    </clipPath>
    <clipPath id="SVGID_2_-3">
      <use xlink:href="#SVGID_1_" style="overflow:visible" id="use1007-6" x="0" y="0" width="100%" height="100%"/>
    </clipPath>
    <clipPath id="SVGID_2_-5">
      <use xlink:href="#SVGID_1_" style="overflow:visible" id="use1007-3" x="0" y="0" width="100%" height="100%"/>
    </clipPath>
    <clipPath id="SVGID_2_-6">
      <use xlink:href="#SVGID_1_" style="overflow:visible" id="use1007-2" x="0" y="0" width="100%" height="100%"/>
    </clipPath>
    <clipPath id="SVGID_2_-1">
      <use xlink:href="#SVGID_1_" style="overflow:visible" id="use1007-27" x="0" y="0" width="100%" height="100%"/>
    </clipPath>
    <clipPath id="SVGID_2_-9">
      <use xlink:href="#SVGID_1_" style="overflow:visible" id="use1007-36" x="0" y="0" width="100%" height="100%"/>
    </clipPath>
    <clipPath id="SVGID_2_-2">
      <use xlink:href="#SVGID_1_" style="overflow:visible" id="use1007-61" x="0" y="0" width="100%" height="100%"/>
    </clipPath>
    <clipPath id="SVGID_2_-7">
      <use xlink:href="#SVGID_1_" style="overflow:visible" id="use1007-9" x="0" y="0" width="100%" height="100%"/>
    </clipPath>
    <clipPath id="SVGID_2_-0">
      <use xlink:href="#SVGID_1_" style="overflow:visible" id="use1007-23" x="0" y="0" width="100%" height="100%"/>
    </clipPath>
    <clipPath id="SVGID_2_-92">
      <use xlink:href="#SVGID_1_" style="overflow:visible" id="use1007-28" x="0" y="0" width="100%" height="100%"/>
    </clipPath>
    <clipPath id="SVGID_2_-36">
      <use xlink:href="#SVGID_1_" style="overflow:visible" id="use1007-1" x="0" y="0" width="100%" height="100%"/>
    </clipPath>
    <clipPath id="SVGID_2_-31">
      <use xlink:href="#SVGID_1_" style="overflow:visible" id="use1007-94" x="0" y="0" width="100%" height="100%"/>
    </clipPath>
    <clipPath id="SVGID_2_-4">
      <use xlink:href="#SVGID_1_" style="overflow:visible" id="use1007-5" x="0" y="0" width="100%" height="100%"/>
    </clipPath>
    <clipPath id="SVGID_2_-61">
      <use xlink:href="#SVGID_1_" style="overflow:visible" id="use1007-0" x="0" y="0" width="100%" height="100%"/>
    </clipPath>
    <clipPath id="SVGID_2_-32">
      <use xlink:href="#SVGID_1_" style="overflow:visible" id="use1007-06" x="0" y="0" width="100%" height="100%"/>
    </clipPath>
    <rect x="0" height="12.9" width="66.900002" y="0" id="SVGID_1_"/>
    <clipPath id="clipPath4674" clipPathUnits="userSpaceOnUse">
      <path id="path4676" d="M 0,500 H 1024 V 0 H 0 Z" inkscape:connector-curvature="0"/>
    </clipPath>
  </defs>
  <sodipodi:namedview id="base" pagecolor="#ffffff" bordercolor="#666666" borderopacity="1.0" inkscape:pageopacity="0.0" inkscape:pageshadow="2" inkscape:zoom="1" inkscape:cx="114.64664" inkscape:cy="334.14682" inkscape:document-units="mm" inkscape:current-layer="layer1" showgrid="false" inkscape:window-width="1920" inkscape:window-height="1016" inkscape:window-x="0" inkscape:window-y="27" inkscape:window-maximized="1" fit-margin-top="0" fit-margin-left="0" fit-margin-right="0" fit-margin-bottom="0" units="px" showguides="true"/>
  <metadata id="metadata77">
    <rdf:RDF>
      <cc:Work rdf:about="">
        <dc:format>image/svg+xml</dc:format>
        <dc:type rdf:resource="http://purl.org/dc/dcmitype/StillImage"/>
        <dc:title/>
      </cc:Work>
    </rdf:RDF>
  </metadata>
  <g inkscape:label="Layer 1" inkscape:groupmode="layer" id="layer1" transform="translate(13.842136,5.2194147)">
    <rect style="opacity:1;fill:#eeeeec;fill-opacity:1;stroke:none;stroke-width:0.92779803;stroke-linecap:round;stroke-linejoin:miter;stroke-miterlimit:4;stroke-dasharray:none;stroke-dashoffset:0;stroke-opacity:1;paint-order:markers stroke fill" id="rect2850" width="137.82066" height="39.158333" x="-13.842136" y="-5.2194147"/>
    <g id="layer1-4" transform="matrix(0.09736913,0,0,0.09736913,-12.137115,-42.073754)" style="fill:#275697;fill-opacity:1">
      <g id="g4670" transform="matrix(1.1165523,0,0,-1.1165523,-103.48743,863.08638)" style="fill:#275697;fill-opacity:1">
        <g clip-path="url(#clipPath4674)" id="g4672" style="fill:#275697;fill-opacity:1">
          <g transform="translate(375.7163,120.5527)" id="g4678" style="fill:#275697;fill-opacity:1">
            <path style="fill:#275697;fill-opacity:1;fill-rule:nonzero;stroke:none;stroke-width:0.41090164" d="m 18.1875,19.128906 c -3.343507,0 -6.052734,2.709228 -6.052734,6.052735 v 97.562499 c 0,3.34227 2.709227,6.05273 6.052734,6.05274 H 70.710938 V 86.328125 H 56.419922 V 69.777344 H 70.710938 V 57.570312 c -10e-7,-14.165012 8.650083,-21.876953 21.286541,-21.876953 6.052581,0 11.255821,0.451002 12.772051,0.652344 v 14.802735 l -8.765624,0.0039 c -6.871919,0 -8.201172,3.264705 -8.201172,8.05664 v 10.56836 h 16.388676 l -2.13477,16.550781 H 87.802734 V 128.79688 H 102 c -0.99493,-0.42014 -1.83485,-1.2059 -2.513672,-2.36524 -1.064637,-1.81825 -1.595703,-4.34809 -1.595703,-7.58984 0,-3.25372 0.519834,-5.8004 1.560547,-7.64258 1.040708,-1.84218 2.476418,-2.76367 4.306638,-2.76367 0.90913,0 1.69169,0.22707 2.34961,0.68164 0.66989,0.4426 1.28739,1.19708 1.84961,2.26172 h 0.28711 c -0.14355,-1.81826 -0.2168,-3.09258 -0.2168,-3.82227 v -6.67578 h 4.77344 v 27.91602 h 2.94727 c 3.34227,0 6.05273,-2.71047 6.05273,-6.05274 V 25.181641 c 0,-3.343507 -2.71046,-6.052735 -6.05273,-6.052735 z M 98.134766,94.89258 h 4.736324 l 0.25196,0.39453 c -0.59811,2.35655 -1.65097,5.22041 -3.158206,8.59375 h -3.642578 c 0.765581,-3.06233 1.369899,-6.05754 1.8125,-8.98828 z m 7.201174,17.66992 c -0.88521,0 -1.53079,0.54425 -1.9375,1.63281 -0.39476,1.0766 -0.5918,2.64929 -0.5918,4.71875 0,2.06947 0.20266,3.62531 0.60938,4.66602 0.40671,1.02875 1.0655,1.54297 1.9746,1.54297 0.88521,0 1.53081,-0.40166 1.9375,-1.20313 0.40672,-0.81343 0.62818,-2.28479 0.66407,-4.41406 v -0.62695 c 0,-2.32067 -0.21023,-3.95343 -0.62891,-4.89844 -0.40671,-0.94501 -1.08233,-1.41797 -2.02734,-1.41797 z m 2.94336,13.63672 c -0.66474,1.29037 -1.52948,2.15088 -2.58789,2.59766 h 3.55468 l -0.80468,-2.59766 z" transform="matrix(2.4336724,0,0,-2.4336724,-281.69307,313.44854)" id="path4680" inkscape:connector-curvature="0" sodipodi:nodetypes="sssccccccsscccscccccccscscccscccsssssccccccscscsccscsccccc"/>
          </g>
          <g transform="translate(307.7046,120.5527)" id="g4682" style="fill:#275697;fill-opacity:1"/>
        </g>
      </g>
    </g>
    <g transform="matrix(0.26458333,0,0,0.26458333,-786.78129,-477.41915)" id="g1026">
      <defs id="defs1005">
        <rect x="0" height="12.9" width="66.900002" y="0" id="rect1656"/>
      </defs>
      <clipPath id="SVGID_2_-67">
        <use height="100%" width="100%" y="0" x="0" id="use1007-365" style="overflow:visible" xlink:href="#SVGID_1_"/>
      </clipPath>
    </g>
    <g style="font-style:normal;font-variant:normal;font-weight:600;font-stretch:normal;font-size:8.26994896px;line-height:1.25;font-family:'URW Gothic L';-inkscape-font-specification:'URW Gothic L Semi-Bold';font-variant-ligatures:normal;font-variant-caps:normal;font-variant-numeric:normal;font-feature-settings:normal;text-align:start;letter-spacing:0px;word-spacing:0px;writing-mode:lr-tb;text-anchor:start;fill:#ffffff;fill-opacity:1;stroke:none;stroke-width:0.51687181" id="g2866" transform="translate(0.15394216,0.17350188)">
      <path d="M -4.3125159,9.5189543 V 6.8376818 q 0,-0.4886054 -0.1171037,-0.7389652 -0.1171038,-0.2503598 -0.3795778,-0.2503598 -0.3472732,0 -0.5087957,0.3472733 -0.1615224,0.3432351 -0.1615224,1.1629615 v 2.1603627 h -1.0741242 v -4.4984 h 0.8520308 l 0.129218,0.5774427 h 0.068647 Q -5.3583737,5.2870663 -5.0878236,5.1134297 -4.8172735,4.935755 -4.453848,4.935755 q 0.6137853,0 0.9166398,0.4199584 0.3068927,0.4199583 0.3068927,1.2275705 v 2.9356704 z" style="font-style:normal;font-variant:normal;font-weight:bold;font-stretch:normal;font-family:'Open Sans Condensed';-inkscape-font-specification:'Open Sans Condensed, Bold';fill:#ffffff;stroke-width:0.51687181" id="path2336" inkscape:connector-curvature="0"/>
      <path d="m 0.97734414,7.2616782 q 0,1.1064287 -0.46841508,1.724252 -0.46841508,0.6137853 -1.2841034,0.6137853 -0.51687186,0 -0.91260176,-0.2826643 -0.39573,-0.2826642 -0.6097472,-0.8116502 -0.2140173,-0.5330241 -0.2140173,-1.2437228 0,-1.0943146 0.464377,-1.7080998 0.4643771,-0.6178234 1.2881415,-0.6178234 0.79549802,0 1.2639131,0.6299375 0.47245314,0.6258995 0.47245314,1.6959857 z m -2.39053214,0 q 0,0.7026226 0.1534463,1.06201 0.1534464,0.3593874 0.49264348,0.3593874 0.64608976,0 0.64608976,-1.4213974 0,-0.7066607 -0.15748438,-1.053934 -0.15344632,-0.3513113 -0.48860538,-0.3513113 -0.33919708,0 -0.49264348,0.3513113 -0.1534463,0.3472733 -0.1534463,1.053934 z" style="font-style:normal;font-variant:normal;font-weight:bold;font-stretch:normal;font-family:'Open Sans Condensed';-inkscape-font-specification:'Open Sans Condensed, Bold';fill:#ffffff;stroke-width:0.51687181" id="path2338" inkscape:connector-curvature="0"/>
      <path d="m 3.2951912,8.6911518 q 0.2261314,0 0.4886054,-0.1130657 v 0.8399167 q -0.262474,0.1817127 -0.7874219,0.1817127 -0.5855188,0 -0.8681831,-0.3472732 Q 1.8455273,8.9011309 1.8455273,8.2025464 V 5.8725852 H 1.4094167 V 5.3920559 L 1.9707072,5.0044021 2.2452954,4.0514197 H 2.9317657 V 5.0205543 H 3.7474541 V 5.8725852 H 2.9317657 v 2.3663037 q 0,0.4522629 0.3634255,0.4522629 z" style="font-style:normal;font-variant:normal;font-weight:bold;font-stretch:normal;font-family:'Open Sans Condensed';-inkscape-font-specification:'Open Sans Condensed, Bold';fill:#ffffff;stroke-width:0.51687181" id="path2340" inkscape:connector-curvature="0"/>
    </g>
    <text xml:space="preserve" style="font-style:normal;font-variant:normal;font-weight:normal;font-stretch:normal;font-size:4.23333311px;line-height:1.25;font-family:'SF Cartoonist Hand SC';-inkscape-font-specification:'SF Cartoonist Hand SC';font-variant-ligatures:normal;font-variant-caps:normal;font-variant-numeric:normal;font-feature-settings:normal;text-align:start;letter-spacing:0px;word-spacing:0px;writing-mode:lr-tb;text-anchor:start;fill:#000000;fill-opacity:1;stroke:none;stroke-width:0.26458332" x="2.0215223" y="-6.5003476" id="text1669"><tspan sodipodi:role="line" id="tspan1667" x="2.0215223" y="-2.209137" style="stroke-width:0.26458332"/></text>
    <text id="text1673" y="25.431738" x="13.260739" style="font-style:normal;font-variant:normal;font-weight:600;font-stretch:normal;font-size:7.0059371px;line-height:1.25;font-family:'URW Gothic L';-inkscape-font-specification:'URW Gothic L Semi-Bold';font-variant-ligatures:normal;font-variant-caps:normal;font-variant-numeric:normal;font-feature-settings:normal;text-align:start;letter-spacing:0px;word-spacing:0px;writing-mode:lr-tb;text-anchor:start;fill:#000000;fill-opacity:1;stroke:none;stroke-width:0.43787107" xml:space="preserve"><tspan style="font-style:normal;font-variant:normal;font-weight:600;font-stretch:normal;font-family:'URW Gothic L';-inkscape-font-specification:'URW Gothic L Semi-Bold';stroke-width:0.43787107" y="31.93421" x="13.260739" id="tspan1671" sodipodi:role="line"/></text>
    <g aria-label="’d" style="font-style:normal;font-variant:normal;font-weight:bold;font-stretch:normal;font-size:9.7228775px;line-height:1.25;font-family:'Open Sans Condensed';-inkscape-font-specification:'Open Sans Condensed, Bold';font-variant-ligatures:normal;font-variant-caps:normal;font-variant-numeric:normal;font-feature-settings:normal;text-align:start;letter-spacing:-0.07672917px;word-spacing:0px;writing-mode:lr-tb;text-anchor:start;fill:#ffffff;fill-opacity:1;stroke:none;stroke-width:0.60767984" id="text1677"/>
    <g aria-label="You won’t find me on Facebook" style="font-style:normal;font-variant:normal;font-weight:bold;font-stretch:condensed;font-size:13.09656143px;line-height:1.10099995;font-family:'Open Sans Condensed';-inkscape-font-specification:'Open Sans Condensed, Bold Condensed';font-variant-ligatures:normal;font-variant-caps:normal;font-variant-numeric:normal;font-feature-settings:normal;text-align:start;letter-spacing:0px;word-spacing:0px;writing-mode:lr-tb;text-anchor:start;fill:#275697;fill-opacity:1;stroke:none;stroke-width:0.76034528" id="text2956">
      <path d="m 27.816941,8.5861798 1.246987,-3.6898027 h 1.822519 L 28.66745,10.498227 v 3.747356 H 26.953642 V 10.568569 L 24.741039,4.8963771 h 1.835309 z" style="font-style:normal;font-variant:normal;font-weight:bold;font-stretch:condensed;font-size:13.09656143px;line-height:1.10099995;font-family:'Open Sans Condensed';-inkscape-font-specification:'Open Sans Condensed, Bold Condensed';fill:#275697;fill-opacity:1;stroke-width:0.76034528" id="path870"/>
      <path d="m 36.520271,10.670886 q 0,1.752177 -0.741797,2.730582 -0.741798,0.972011 -2.033549,0.972011 -0.818535,0 -1.445226,-0.447637 -0.62669,-0.447636 -0.965615,-1.285356 -0.338925,-0.844114 -0.338925,-1.9696 0,-1.7329919 0.735403,-2.7050023 0.735402,-0.9784052 2.039943,-0.9784052 1.259776,0 2.001574,0.9975896 0.748192,0.9911948 0.748192,2.6858179 z m -3.785725,0 q 0,1.112697 0.243003,1.681834 0.243002,0.569138 0.780166,0.569138 1.023169,0 1.023169,-2.250972 0,-1.1190906 -0.249397,-1.6690438 -0.243003,-0.5563481 -0.773772,-0.5563481 -0.537164,0 -0.780166,0.5563481 -0.243003,0.5499532 -0.243003,1.6690438 z" style="font-style:normal;font-variant:normal;font-weight:bold;font-stretch:condensed;font-size:13.09656143px;line-height:1.10099995;font-family:'Open Sans Condensed';-inkscape-font-specification:'Open Sans Condensed, Bold Condensed';fill:#275697;fill-opacity:1;stroke-width:0.76034528" id="path872"/>
      <path d="m 41.565772,14.245583 -0.211028,-0.914458 h -0.08953 q -0.236607,0.486006 -0.677849,0.767377 -0.434847,0.274977 -0.99759,0.274977 -0.95922,0 -1.45162,-0.65227 -0.4924,-0.652271 -0.4924,-1.950416 V 7.1217694 h 1.720202 v 4.2397556 q 0,0.780167 0.18545,1.176645 0.185449,0.396477 0.601111,0.396477 0.549954,0 0.799351,-0.549953 0.255792,-0.549953 0.255792,-1.848099 V 7.1217694 h 1.720203 v 7.1238136 z" style="font-style:normal;font-variant:normal;font-weight:bold;font-stretch:condensed;font-size:13.09656143px;line-height:1.10099995;font-family:'Open Sans Condensed';-inkscape-font-specification:'Open Sans Condensed, Bold Condensed';fill:#275697;fill-opacity:1;stroke-width:0.76034528" id="path874"/>
      <path d="m 52.577627,14.245583 -0.709824,-4.13744 -0.249397,-1.7457814 h -0.02558 q -0.09592,0.8505091 -0.153475,1.2341975 -0.05755,0.3772935 -0.812141,4.6490239 H 48.440188 L 47.020541,7.1217694 h 1.707413 l 0.65227,3.9264106 q 0.115107,0.65227 0.211029,1.912047 h 0.03837 q 0.01279,-0.338925 0.08953,-1.029564 0.07674,-0.697034 0.108712,-0.895273 l 0.703428,-3.9136206 h 2.187024 l 0.697033,3.9264106 q 0.121502,0.626691 0.211029,1.912047 h 0.02558 q 0.08953,-1.14467 0.223818,-1.912047 l 0.67785,-3.9264106 h 1.662649 L 54.79023,14.245583 Z" style="font-style:normal;font-variant:normal;font-weight:bold;font-stretch:condensed;font-size:13.09656143px;line-height:1.10099995;font-family:'Open Sans Condensed';-inkscape-font-specification:'Open Sans Condensed, Bold Condensed';fill:#275697;fill-opacity:1;stroke-width:0.76034528" id="path876"/>
      <path d="m 62.355284,10.670886 q 0,1.752177 -0.741797,2.730582 -0.741798,0.972011 -2.033549,0.972011 -0.818535,0 -1.445226,-0.447637 -0.626691,-0.447636 -0.965615,-1.285356 -0.338925,-0.844114 -0.338925,-1.9696 0,-1.7329919 0.735403,-2.7050023 0.735402,-0.9784052 2.039943,-0.9784052 1.259776,0 2.001574,0.9975896 0.748192,0.9911948 0.748192,2.6858179 z m -3.785725,0 q 0,1.112697 0.243003,1.681834 0.243002,0.569138 0.780166,0.569138 1.023169,0 1.023169,-2.250972 0,-1.1190906 -0.249398,-1.6690438 -0.243002,-0.5563481 -0.773771,-0.5563481 -0.537164,0 -0.780166,0.5563481 -0.243003,0.5499532 -0.243003,1.6690438 z" style="font-style:normal;font-variant:normal;font-weight:bold;font-stretch:condensed;font-size:13.09656143px;line-height:1.10099995;font-family:'Open Sans Condensed';-inkscape-font-specification:'Open Sans Condensed, Bold Condensed';fill:#275697;fill-opacity:1;stroke-width:0.76034528" id="path878"/>
      <path d="M 67.100229,14.245583 V 9.9994318 q 0,-0.7737714 -0.18545,-1.1702494 -0.185449,-0.3964779 -0.601111,-0.3964779 -0.549953,0 -0.805746,0.5499532 -0.255792,0.5435585 -0.255792,1.8417043 v 3.421221 H 63.551112 V 7.1217694 h 1.349304 l 0.204634,0.9144572 h 0.108711 q 0.230213,-0.4924001 0.658665,-0.7673767 0.428452,-0.2813714 1.003985,-0.2813714 0.97201,0 1.45162,0.6650597 0.486006,0.6650598 0.486006,1.9440209 v 4.6490239 z" style="font-style:normal;font-variant:normal;font-weight:bold;font-stretch:condensed;font-size:13.09656143px;line-height:1.10099995;font-family:'Open Sans Condensed';-inkscape-font-specification:'Open Sans Condensed, Bold Condensed';fill:#275697;fill-opacity:1;stroke-width:0.76034528" id="path880"/>
      <path d="m 71.941096,4.8963771 0.08953,0.1406857 q -0.31974,1.2597767 -1.125486,3.0631118 h -1.298145 q 0.409267,-1.6370702 0.645875,-3.2037975 z" style="font-style:normal;font-variant:normal;font-weight:bold;font-stretch:condensed;font-size:13.09656143px;line-height:1.10099995;font-family:'Open Sans Condensed';-inkscape-font-specification:'Open Sans Condensed, Bold Condensed';fill:#275697;fill-opacity:1;stroke-width:0.76034528" id="path882"/>
      <path d="m 75.36232,12.934647 q 0.358109,0 0.773771,-0.179054 v 1.330119 q -0.415662,0.287767 -1.246987,0.287767 -0.927247,0 -1.374883,-0.549954 -0.447636,-0.556348 -0.447636,-1.662649 V 8.4710733 H 72.375946 V 7.7100915 L 73.264824,7.0961902 73.69967,5.5870161 h 1.087117 v 1.5347533 h 1.291751 v 1.3493039 h -1.291751 v 3.7473557 q 0,0.716218 0.575533,0.716218 z" style="font-style:normal;font-variant:normal;font-weight:bold;font-stretch:condensed;font-size:13.09656143px;line-height:1.10099995;font-family:'Open Sans Condensed';-inkscape-font-specification:'Open Sans Condensed, Bold Condensed';fill:#275697;fill-opacity:1;stroke-width:0.76034528" id="path884"/>
      <path d="M 83.547668,8.4710733 H 82.371023 V 14.245583 H 80.670005 V 8.4710733 h -0.82493 V 7.6205642 l 0.82493,-0.5115844 V 6.5718161 q 0,-1.1894338 0.4924,-1.7649663 0.4924,-0.5819273 1.585912,-0.5819273 0.690639,0 1.285356,0.2877663 l -0.447636,1.2981455 q -0.319741,-0.1534754 -0.652271,-0.1534754 -0.294161,0 -0.428452,0.230213 -0.134291,0.230213 -0.134291,0.7098234 v 0.5243741 h 1.176645 z m 2.462,5.7745097 H 84.30865 V 7.1217694 h 1.701018 z M 84.238307,5.260881 q 0,-0.4220571 0.243002,-0.6650597 0.249398,-0.2493975 0.690639,-0.2493975 0.415663,0 0.66506,0.2493975 0.249397,0.2430026 0.249397,0.6650597 0,0.4348468 -0.255792,0.6778494 -0.255792,0.2366078 -0.658665,0.2366078 -0.422057,0 -0.677849,-0.2366078 Q 84.238307,5.6957278 84.238307,5.260881 Z" style="font-style:normal;font-variant:normal;font-weight:bold;font-stretch:condensed;font-size:13.09656143px;line-height:1.10099995;font-family:'Open Sans Condensed';-inkscape-font-specification:'Open Sans Condensed, Bold Condensed';fill:#275697;fill-opacity:1;stroke-width:0.76034528" id="path886"/>
      <path d="M 91.016801,14.245583 V 9.9994318 q 0,-0.7737714 -0.185449,-1.1702494 -0.185449,-0.3964779 -0.601112,-0.3964779 -0.549953,0 -0.805745,0.5499532 -0.255792,0.5435585 -0.255792,1.8417043 v 3.421221 H 87.467684 V 7.1217694 h 1.349304 l 0.204634,0.9144572 h 0.108712 q 0.230213,-0.4924001 0.658665,-0.7673767 0.428452,-0.2813714 1.003984,-0.2813714 0.972011,0 1.451621,0.6650597 0.486005,0.6650598 0.486005,1.9440209 v 4.6490239 z" style="font-style:normal;font-variant:normal;font-weight:bold;font-stretch:condensed;font-size:13.09656143px;line-height:1.10099995;font-family:'Open Sans Condensed';-inkscape-font-specification:'Open Sans Condensed, Bold Condensed';fill:#275697;fill-opacity:1;stroke-width:0.76034528" id="path888"/>
      <path d="m 95.991963,14.373479 q -0.9848,0 -1.553938,-0.972011 -0.569138,-0.97201 -0.569138,-2.705002 0,-1.7393875 0.556349,-2.7241875 0.556348,-0.9848 1.534753,-0.9848 0.486005,0 0.837719,0.2430026 0.358109,0.2366078 0.658665,0.8057455 H 97.55869 Q 97.481952,7.0642161 97.481952,6.674133 V 4.2952654 h 1.701019 v 9.9503176 h -1.266172 l -0.287766,-0.927247 h -0.05755 q -0.543559,1.055143 -1.579517,1.055143 z m 0.549953,-1.438832 q 0.473216,0 0.690639,-0.428451 0.217423,-0.434847 0.236608,-1.573123 v -0.223818 q 0,-1.240592 -0.223818,-1.7457817 -0.217424,-0.5051896 -0.722613,-0.5051896 -0.473216,0 -0.690639,0.5819273 -0.211029,0.5755325 -0.211029,1.681834 0,1.106301 0.217424,1.662649 0.217423,0.549953 0.703428,0.549953 z" style="font-style:normal;font-variant:normal;font-weight:bold;font-stretch:condensed;font-size:13.09656143px;line-height:1.10099995;font-family:'Open Sans Condensed';-inkscape-font-specification:'Open Sans Condensed, Bold Condensed';fill:#275697;fill-opacity:1;stroke-width:0.76034528" id="path890"/>
      <path d="M 110.93662,14.245583 V 9.9994318 q 0,-1.5667273 -0.77377,-1.5667273 -0.56274,0 -0.80575,0.5627429 -0.243,0.556348 -0.243,1.7905456 v 3.45959 h -1.71381 V 9.9994318 q 0,-1.5667273 -0.78656,-1.5667273 -0.54995,0 -0.79935,0.5563481 -0.2494,0.556348 -0.2494,1.8353094 v 3.421221 h -1.70101 V 7.1217694 h 1.3493 l 0.20463,0.9144572 h 0.10872 q 0.25579,-0.5435585 0.69703,-0.7929559 0.44764,-0.2557922 0.95283,-0.2557922 1.30454,0 1.73938,1.2341974 h 0.064 q 0.54356,-1.2341974 1.74578,-1.2341974 0.94643,0 1.43244,0.6650597 0.4924,0.6650598 0.4924,1.9440209 v 4.6490239 z" style="font-style:normal;font-variant:normal;font-weight:bold;font-stretch:condensed;font-size:13.09656143px;line-height:1.10099995;font-family:'Open Sans Condensed';-inkscape-font-specification:'Open Sans Condensed, Bold Condensed';fill:#275697;fill-opacity:1;stroke-width:0.76034528" id="path892"/>
      <path d="m 116.64718,14.373479 q -1.33651,0 -2.11028,-0.946432 -0.76738,-0.952826 -0.76738,-2.692213 0,-1.7649659 0.69704,-2.7561607 0.69703,-0.9911948 1.94402,-0.9911948 1.16385,0 1.83531,0.8505091 0.67145,0.8441143 0.67145,2.3724724 v 0.908063 h -3.42122 q 0.0192,0.952826 0.39008,1.419647 0.3709,0.460426 1.02317,0.460426 0.83133,0 1.70102,-0.51798 v 1.400463 q -0.81854,0.4924 -1.96321,0.4924 z m -0.24939,-6.0750654 q -0.36451,0 -0.60111,0.3900831 -0.23661,0.3836883 -0.27498,1.1958286 h 1.7266 q -0.0128,-0.7801663 -0.23661,-1.183039 -0.22382,-0.4028727 -0.6139,-0.4028727 z" style="font-style:normal;font-variant:normal;font-weight:bold;font-stretch:condensed;font-size:13.09656143px;line-height:1.10099995;font-family:'Open Sans Condensed';-inkscape-font-specification:'Open Sans Condensed, Bold Condensed';fill:#275697;fill-opacity:1;stroke-width:0.76034528" id="path894"/>
      <path d="m 30.739367,25.0902 q 0,1.752177 -0.741798,2.730582 -0.741797,0.97201 -2.033548,0.97201 -0.818535,0 -1.445226,-0.447636 -0.626691,-0.447637 -0.965615,-1.285356 -0.338925,-0.844114 -0.338925,-1.9696 0,-1.732992 0.735402,-2.705003 0.735403,-0.978405 2.039943,-0.978405 1.259777,0 2.001574,0.99759 0.748193,0.991194 0.748193,2.685818 z m -3.785725,0 q 0,1.112696 0.243003,1.681834 0.243002,0.569137 0.780166,0.569137 1.023169,0 1.023169,-2.250971 0,-1.119091 -0.249398,-1.669044 -0.243002,-0.556348 -0.773771,-0.556348 -0.537164,0 -0.780166,0.556348 -0.243003,0.549953 -0.243003,1.669044 z" style="font-style:normal;font-variant:normal;font-weight:bold;font-stretch:condensed;font-size:13.09656143px;line-height:1.10099995;font-family:'Open Sans Condensed';-inkscape-font-specification:'Open Sans Condensed, Bold Condensed';fill:#275697;fill-opacity:1;stroke-width:0.76034528" id="path896"/>
      <path d="m 35.484312,28.664896 v -4.246151 q 0,-0.773771 -0.185449,-1.170249 -0.18545,-0.396478 -0.601112,-0.396478 -0.549953,0 -0.805745,0.549953 -0.255793,0.543559 -0.255793,1.841704 v 3.421221 h -1.701018 v -7.123813 h 1.349304 l 0.204634,0.914457 h 0.108712 q 0.230213,-0.4924 0.658664,-0.767377 0.428452,-0.281371 1.003985,-0.281371 0.97201,0 1.451621,0.66506 0.486005,0.665059 0.486005,1.944021 v 4.649023 z" style="font-style:normal;font-variant:normal;font-weight:bold;font-stretch:condensed;font-size:13.09656143px;line-height:1.10099995;font-family:'Open Sans Condensed';-inkscape-font-specification:'Open Sans Condensed, Bold Condensed';fill:#275697;fill-opacity:1;stroke-width:0.76034528" id="path898"/>
      <path d="M 43.663267,28.664896 H 41.93667 v -9.349205 h 4.188598 v 1.502779 h -2.462001 v 2.596291 h 2.295736 v 1.502779 h -2.295736 z" style="font-style:normal;font-variant:normal;font-weight:bold;font-stretch:condensed;font-size:13.09656143px;line-height:1.10099995;font-family:'Open Sans Condensed';-inkscape-font-specification:'Open Sans Condensed, Bold Condensed';fill:#275697;fill-opacity:1;stroke-width:0.76034528" id="path900"/>
      <path d="m 50.697554,28.664896 -0.338924,-0.97201 h -0.03837 q -0.377294,0.626691 -0.780167,0.863298 -0.402872,0.236608 -1.016774,0.236608 -0.786561,0 -1.240592,-0.588322 -0.447636,-0.588322 -0.447636,-1.63707 0,-1.125486 0.613901,-1.669044 0.620296,-0.549954 1.848099,-0.607507 l 0.946431,-0.03837 v -0.511584 q 0,-0.99759 -0.863299,-0.99759 -0.63948,0 -1.470805,0.498795 l -0.588322,-1.176644 q 1.061538,-0.671455 2.308525,-0.671455 1.13188,0 1.720202,0.652271 0.594717,0.645875 0.594717,1.835309 v 4.783314 z m -1.4772,-1.202223 q 0.466821,0 0.741798,-0.415663 0.281371,-0.422057 0.281371,-1.119091 v -0.601111 l -0.524374,0.02558 q -0.581927,0.03197 -0.856904,0.33253 -0.268582,0.300556 -0.268582,0.895273 0,0.882483 0.626691,0.882483 z" style="font-style:normal;font-variant:normal;font-weight:bold;font-stretch:condensed;font-size:13.09656143px;line-height:1.10099995;font-family:'Open Sans Condensed';-inkscape-font-specification:'Open Sans Condensed, Bold Condensed';fill:#275697;fill-opacity:1;stroke-width:0.76034528" id="path902"/>
      <path d="m 55.672713,28.792792 q -1.272567,0 -1.937626,-0.927247 -0.66506,-0.927246 -0.66506,-2.724187 0,-1.880072 0.626691,-2.807319 0.633086,-0.927247 1.950415,-0.927247 0.396478,0 0.831325,0.115106 0.434847,0.115107 0.780166,0.33253 l -0.486005,1.323725 q -0.530769,-0.313345 -0.940036,-0.313345 -0.543559,0 -0.786561,0.569137 -0.236608,0.562743 -0.236608,1.694624 0,1.106301 0.236608,1.656254 0.236608,0.543559 0.773771,0.543559 0.639481,0 1.336515,-0.447637 v 1.496385 q -0.671455,0.415662 -1.483595,0.415662 z" style="font-style:normal;font-variant:normal;font-weight:bold;font-stretch:condensed;font-size:13.09656143px;line-height:1.10099995;font-family:'Open Sans Condensed';-inkscape-font-specification:'Open Sans Condensed, Bold Condensed';fill:#275697;fill-opacity:1;stroke-width:0.76034528" id="path904"/>
      <path d="m 60.807741,28.792792 q -1.336514,0 -2.110285,-0.946431 -0.767377,-0.952826 -0.767377,-2.692213 0,-1.764966 0.697034,-2.756161 0.697034,-0.991195 1.944021,-0.991195 1.163854,0 1.835309,0.850509 0.671454,0.844114 0.671454,2.372473 v 0.908062 h -3.421221 q 0.01919,0.952826 0.390084,1.419647 0.370898,0.460426 1.023168,0.460426 0.831325,0 1.701019,-0.517979 v 1.400462 q -0.818535,0.4924 -1.963206,0.4924 z m -0.249397,-6.075065 q -0.364504,0 -0.601112,0.390083 -0.236607,0.383689 -0.274976,1.195829 h 1.726597 Q 61.396064,23.523473 61.172245,23.1206 60.948427,22.717727 60.558344,22.717727 Z" style="font-style:normal;font-variant:normal;font-weight:bold;font-stretch:condensed;font-size:13.09656143px;line-height:1.10099995;font-family:'Open Sans Condensed';-inkscape-font-specification:'Open Sans Condensed, Bold Condensed';fill:#275697;fill-opacity:1;stroke-width:0.76034528" id="path906"/>
      <path d="m 67.432761,21.406792 q 0.97201,0 1.528358,0.965616 0.556348,0.965615 0.556348,2.717792 0,1.771361 -0.562742,2.736977 -0.556348,0.965615 -1.547543,0.965615 -0.479611,0 -0.850509,-0.204634 -0.364504,-0.211028 -0.690639,-0.735402 h -0.108712 l -0.287766,0.81214 h -1.253382 v -9.950317 h 1.701018 v 2.327709 q 0,0.147081 -0.0064,0.306951 -0.0064,0.15987 -0.08313,1.119091 h 0.08953 q 0.313345,-0.588322 0.677849,-0.82493 0.364504,-0.236608 0.83772,-0.236608 z m -0.588322,1.445226 q -0.486005,0 -0.703429,0.454031 -0.211028,0.454031 -0.223818,1.598702 v 0.172659 q 0,1.240593 0.217423,1.745782 0.223819,0.50519 0.722613,0.50519 0.920852,0 0.920852,-2.263761 0,-2.212603 -0.933641,-2.212603 z" style="font-style:normal;font-variant:normal;font-weight:bold;font-stretch:condensed;font-size:13.09656143px;line-height:1.10099995;font-family:'Open Sans Condensed';-inkscape-font-specification:'Open Sans Condensed, Bold Condensed';fill:#275697;fill-opacity:1;stroke-width:0.76034528" id="path908"/>
      <path d="m 75.989008,25.0902 q 0,1.752177 -0.741797,2.730582 -0.741798,0.97201 -2.033548,0.97201 -0.818535,0 -1.445226,-0.447636 -0.626691,-0.447637 -0.965616,-1.285356 -0.338925,-0.844114 -0.338925,-1.9696 0,-1.732992 0.735403,-2.705003 0.735403,-0.978405 2.039943,-0.978405 1.259776,0 2.001574,0.99759 0.748192,0.991194 0.748192,2.685818 z m -3.785725,0 q 0,1.112696 0.243003,1.681834 0.243003,0.569137 0.780166,0.569137 1.023169,0 1.023169,-2.250971 0,-1.119091 -0.249397,-1.669044 -0.243003,-0.556348 -0.773772,-0.556348 -0.537163,0 -0.780166,0.556348 -0.243003,0.549953 -0.243003,1.669044 z" style="font-style:normal;font-variant:normal;font-weight:bold;font-stretch:condensed;font-size:13.09656143px;line-height:1.10099995;font-family:'Open Sans Condensed';-inkscape-font-specification:'Open Sans Condensed, Bold Condensed';fill:#275697;fill-opacity:1;stroke-width:0.76034528" id="path910"/>
      <path d="m 82.460551,25.0902 q 0,1.752177 -0.741798,2.730582 -0.741797,0.97201 -2.033548,0.97201 -0.818535,0 -1.445226,-0.447636 -0.626691,-0.447637 -0.965616,-1.285356 -0.338924,-0.844114 -0.338924,-1.9696 0,-1.732992 0.735402,-2.705003 0.735403,-0.978405 2.039943,-0.978405 1.259777,0 2.001574,0.99759 0.748193,0.991194 0.748193,2.685818 z m -3.785725,0 q 0,1.112696 0.243002,1.681834 0.243003,0.569137 0.780167,0.569137 1.023168,0 1.023168,-2.250971 0,-1.119091 -0.249397,-1.669044 -0.243003,-0.556348 -0.773771,-0.556348 -0.537164,0 -0.780167,0.556348 -0.243002,0.549953 -0.243002,1.669044 z" style="font-style:normal;font-variant:normal;font-weight:bold;font-stretch:condensed;font-size:13.09656143px;line-height:1.10099995;font-family:'Open Sans Condensed';-inkscape-font-specification:'Open Sans Condensed, Bold Condensed';fill:#275697;fill-opacity:1;stroke-width:0.76034528" id="path912"/>
      <path d="m 85.331821,24.828013 0.428452,-0.850509 1.406857,-2.436421 h 1.803336 l -1.803336,2.922426 1.924837,4.201387 H 87.307816 L 86.02246,25.652943 85.3574,26.254054 v 2.410842 H 83.656382 V 18.714579 H 85.3574 v 4.687392 l -0.07674,1.426042 z" style="font-style:normal;font-variant:normal;font-weight:bold;font-stretch:condensed;font-size:13.09656143px;line-height:1.10099995;font-family:'Open Sans Condensed';-inkscape-font-specification:'Open Sans Condensed, Bold Condensed';fill:#275697;fill-opacity:1;stroke-width:0.76034528" id="path914"/>
    </g>
  </g>
  <style id="style1002" type="text/css">
	.st0{clip-path:url(#SVGID_2_);fill:#4967A9;}
</style>
</svg>