<svg height="512pt" viewBox="0 0 512 512" width="512pt" xmlns="http://www.w3.org/2000/svg"><path d="m436 0h-360c-41.398438 0-76 33.601562-76 75v361c0 41.398438 34.601562 75 76 75h360c41.398438 0 76-33.601562 76-75v-361c0-41.398438-34.601562-75-76-75zm0 0" fill="#0095ff"/><path d="m512 75v361c0 41.398438-34.601562 75-76 75h-180v-511h180c41.398438 0 76 33.601562 76 75zm0 0" fill="#006eff"/><g fill="#edf5ff"><path d="m151 451h-60c-8.289062 0-15-6.710938-15-15v-241c0-8.289062 6.710938-15 15-15h60c8.289062 0 15 6.710938 15 15v241c0 8.289062-6.710938 15-15 15zm0 0"/><path d="m121 150c-24.8125 0-45-20.1875-45-45s20.1875-45 45-45 45 20.1875 45 45-20.1875 45-45 45zm0 0"/><path d="m426.097656 231.597656c-13.5-26.996094-39.296875-45.597656-70.496094-50.699218-24.300781-3.898438-49.503906.601562-69.601562 12.300781-.902344-7.5-7.199219-13.199219-15-13.199219h-60c-8.402344 0-15 6.597656-15 15v241c0 8.398438 6.597656 15 15 15h60c8.402344 0 15-6.601562 15-15v-136c0-16.5 13.5-30 30-30s30 13.5 30 30v136c0 8.398438 6.597656 15 15 15h60c8.402344 0 15-6.601562 15-15v-162.398438c0-14.402343-3.300781-29.101562-9.902344-42.003906zm0 0"/></g><path d="m436 273.601562v162.398438c0 8.398438-6.597656 15-15 15h-60c-8.402344 0-15-6.601562-15-15v-136c0-16.5-13.5-30-30-30s-30 13.5-30 30v136c0 8.398438-6.597656 15-15 15h-15v-271h15c7.800781 0 14.097656 5.699219 15 13.199219 20.097656-11.699219 45.300781-16.199219 69.601562-12.300781 31.199219 5.101562 56.996094 23.703124 70.496094 50.699218 6.601563 12.902344 9.902344 27.601563 9.902344 42.003906zm0 0" fill="#d7e9ff"/></svg>